<svg width="414" height="368" viewBox="0 0 414 368" fill="none" xmlns="http://www.w3.org/2000/svg">
<path d="M243.421 31.0471C233.376 31.0471 225.614 38.8085 225.614 48.8535C225.614 58.8982 233.376 66.66 243.421 66.66C253.011 66.66 261.227 58.8986 261.227 48.8535C261.227 38.8089 253.007 31.0471 243.421 31.0471ZM243.421 31.0471C233.376 31.0471 225.614 38.8085 225.614 48.8535C225.614 58.8982 233.376 66.66 243.421 66.66C253.011 66.66 261.227 58.8986 261.227 48.8535C261.227 38.8089 253.007 31.0471 243.421 31.0471ZM413.267 368L390.894 348.824C389.98 347.91 389.524 347.454 389.069 346.54L337.478 233.766C336.564 231.027 337.02 228.285 338.848 226.46C369.893 194.501 397.29 153.406 405.051 133.775C405.506 132.861 405.965 131.492 406.42 130.122H334.281C330.628 130.122 327.889 127.383 327.889 123.73C327.889 120.077 330.628 117.338 334.281 117.338H408.246C408.246 109.577 405.507 102.726 401.398 96.3343C394.092 85.3757 382.222 78.9836 369.439 78.9836L311.911 78.9868C310.086 78.9868 308.713 78.0728 307.344 76.7033C305.974 75.3338 305.519 73.5057 305.519 71.6808C305.519 68.9418 305.974 66.2028 305.974 63.464C305.974 28.3069 278.123 0 243.88 0C209.637 0 181.786 28.3069 181.786 63.464C181.786 66.203 181.786 68.942 182.241 71.6808C182.241 74.8784 180.872 77.6172 178.133 78.5281C83.165 116.883 10.1129 226.459 0.0682149 344.712C-0.387211 350.648 1.43769 356.126 5.54614 360.694C9.19916 365.261 14.6768 367.541 20.6131 367.541H163.521L110.102 332.384C107.818 330.559 106.449 327.817 107.363 325.078C108.277 322.339 111.016 320.511 113.755 320.511C137.498 320.511 157.129 300.421 157.129 275.767C157.129 251.114 137.498 231.024 113.755 231.024C110.102 231.024 107.363 228.285 107.363 224.632C107.363 220.979 110.102 218.24 113.755 218.24C144.8 218.24 169.913 244.266 169.913 275.767C169.913 301.335 153.476 323.25 130.647 330.556L147.998 341.97H148.912C196.853 341.97 247.989 321.425 282.232 287.182C285.885 283.984 289.994 276.223 295.471 276.681C297.296 276.681 299.124 277.595 300.038 279.42L357.107 367.54V367.998L413.267 368ZM243.421 83.0967C224.245 83.0967 209.178 68.0297 209.178 48.8535C209.178 29.6773 224.245 14.6103 243.421 14.6103C262.597 14.6103 277.664 29.6773 277.664 48.8535C277.664 68.0297 262.138 83.0967 243.421 83.0967ZM243.421 31.0471C233.376 31.0471 225.614 38.8085 225.614 48.8535C225.614 58.8982 233.376 66.66 243.421 66.66C253.011 66.66 261.227 58.8986 261.227 48.8535C261.227 38.8089 253.007 31.0471 243.421 31.0471ZM281.772 348.367C280.858 347.912 280.403 346.998 279.947 346.084L266.249 316.408C257.119 322.8 246.159 329.647 232.462 335.584L249.813 367.544H304.146L281.772 348.367Z" fill="#8EB744"/>
</svg>
