<svg width="557" height="333" viewBox="0 0 557 333" fill="none" xmlns="http://www.w3.org/2000/svg">
<path d="M93.7091 228.954C53.5764 190.207 37.5642 139.954 37.2873 139.261C38.0488 139.121 89.5511 127.892 143.203 143.212C127.815 89.6301 139.044 38.0601 139.252 37.2963C139.945 37.5729 190.198 53.5854 228.945 93.7181C237.818 58.2963 255.493 27.938 278.436 0C300.477 24.469 319.955 61.6213 327.995 93.7181C366.742 53.5854 416.995 37.5732 417.687 37.2963C417.827 38.0577 429.056 89.5601 413.737 143.212C467.318 127.824 518.889 139.053 519.652 139.261C519.376 139.954 503.363 190.207 463.23 228.954C517.365 242.47 556.392 277.96 556.949 278.445C476.685 350.046 368.963 350.117 288.699 278.445C288.839 278.376 290.502 276.85 293.414 274.423C289.672 273.87 287.522 273.382 287.313 273.313C287.382 273.174 288.075 271.094 289.393 267.492C285.859 268.878 283.708 269.571 283.571 269.571C283.571 269.432 283.087 267.284 282.462 263.47L278.44 268.254L274.418 263.539C273.865 267.281 273.377 269.431 273.309 269.64C273.169 269.571 271.09 268.878 267.488 267.492C268.874 271.097 269.567 273.245 269.567 273.385C269.427 273.385 267.279 273.87 263.466 274.494C266.447 276.922 268.109 278.376 268.249 278.516C188.049 350.117 80.2002 350.049 0 278.516C0.553215 277.963 39.5798 242.473 93.7181 228.957L93.7091 228.954Z" fill="#F9B8FF"/>
</svg>
